<?xml version="1.0" encoding="UTF-8" standalone="no"?>
<svg
   xmlns:dc="http://purl.org/dc/elements/1.1/"
   xmlns:rdf="http://www.w3.org/1999/02/22-rdf-syntax-ns#"
   xmlns:svg="http://www.w3.org/2000/svg"
   xmlns="http://www.w3.org/2000/svg"
   viewBox="0 0 512 512"
   id="svg1">
  <path
     style="fill:#ffffff;stroke-width:0.755952"
     d="M 12,384 V 128 h 418 v 80 h 50 v 96 h -50 v 80 z M 44,160 V 352 H 398 V 160 Z"
     transform="rotate(-90,251,251)"
     id="path1" />
  <g
     id="text1"
     transform="matrix(1.393537,0,0,1.393537,-58.972769,-110.3614)"
     >
    <path
       id="path2"
       style="fill:#ffffff"
       d="m 230.92469,314.1359 h -13.68 l -6,-123.12 h 25.68 z m -21.84,35.28 q 0,-8.88 4.32,-12.48 4.32,-3.6 10.56,-3.6 6,0 10.32,3.6 4.56,3.6 4.56,12.48 0,8.64 -4.56,12.48 -4.32,3.84 -10.32,3.84 -6.24,0 -10.56,-3.84 -4.32,-3.84 -4.32,-12.48 z" />
  </g>
</svg>
