<?xml version="1.0" encoding="UTF-8" standalone="no"?>
<!-- Created with Inkscape (http://www.inkscape.org/) -->

<svg
   width="87.169029mm"
   height="166.04199mm"
   viewBox="0 0 87.169029 166.04199"
   version="1.1"
   id="svg1"
   xml:space="preserve"
   sodipodi:docname="overlay_darkstar.svg"
   inkscape:version="1.3.2 (091e20e, 2023-11-25, custom)"
   inkscape:export-filename="overlay_darkstar.png"
   inkscape:export-xdpi="96"
   inkscape:export-ydpi="96"
   xmlns:inkscape="http://www.inkscape.org/namespaces/inkscape"
   xmlns:sodipodi="http://sodipodi.sourceforge.net/DTD/sodipodi-0.dtd"
   xmlns="http://www.w3.org/2000/svg"
   xmlns:svg="http://www.w3.org/2000/svg"><sodipodi:namedview
     id="namedview1"
     pagecolor="#ffffff"
     bordercolor="#000000"
     borderopacity="0.25"
     inkscape:showpageshadow="2"
     inkscape:pageopacity="0.0"
     inkscape:pagecheckerboard="0"
     inkscape:deskcolor="#d1d1d1"
     inkscape:document-units="mm"
     inkscape:zoom="2.3823884"
     inkscape:cx="164.12102"
     inkscape:cy="296.76102"
     inkscape:window-width="1942"
     inkscape:window-height="1659"
     inkscape:window-x="1044"
     inkscape:window-y="414"
     inkscape:window-maximized="0"
     inkscape:current-layer="layer1" /><defs
     id="defs1" /><g
     inkscape:label="Layer 1"
     inkscape:groupmode="layer"
     id="layer1"
     transform="translate(-60.715198,-63.714386)"><path
       style="fill:#5a5858;fill-opacity:1;stroke:#000000;stroke-width:0.465;stroke-dasharray:none;stroke-opacity:1"
       d="m 113.35788,64.119646 25.79706,15.038471 3.61238,20.574828 2.99107,35.207385 -32.20419,6.28584 z"
       id="path1"
       sodipodi:nodetypes="cccccc" /><path
       style="fill:#444040;fill-opacity:1;stroke:#000000;stroke-width:0.465;stroke-dasharray:none;stroke-opacity:1"
       d="m 113.52475,141.23599 32.23582,-6.30145 0.45968,5.40332 -32.9409,11.5291 z"
       id="path2"
       sodipodi:nodetypes="ccccc" /><path
       style="fill:#5a5858;fill-opacity:1;stroke:#000000;stroke-width:0.465;stroke-dasharray:none;stroke-opacity:1"
       d="m 113.28916,151.87678 32.92535,-11.53518 -0.0115,13.20394 -1.72766,31.47085 -1.84545,18.96497 -3.65164,5.94863 -5.06518,6.14497 -6.79283,5.41856 -4.73143,2.98413 -5.1437,2.51296 -7.87262,1.98288 -8.20638,0.54971 -7.381805,-0.64787 -6.675038,-1.80619 -5.47746,-2.9645 -3.141194,-13.09486 -4.358409,-20.65336 -4.319143,-23.32337 28.938259,-9.97329 -0.07853,5.13879 0.215955,0.6037 0.471181,0.50063 13.035964,4.71179 0.6086,-0.21595 0.33376,-0.51045 z"
       id="path3"
       sodipodi:nodetypes="cccccccccccccccccccccccccc" /><path
       style="fill:#5a5858;fill-opacity:1;stroke:#000000;stroke-width:0.465;stroke-dasharray:none;stroke-opacity:1"
       d="m 98.480696,64.198475 0.01389,79.934005 -31.704341,6.14832 -0.854591,-18.14446 7.489788,-3.37679 0.687136,-0.75585 0.333754,-0.87365 0.530077,-48.953558 z"
       id="path4"
       sodipodi:nodetypes="ccccccccc" /><path
       style="fill:#444040;fill-opacity:1;stroke:#000000;stroke-width:0.465;stroke-dasharray:none;stroke-opacity:1"
       d="m 66.982208,150.36747 2.850485,16.52815 28.903903,-9.91685 -0.172606,-12.82546 z"
       id="path5"
       sodipodi:nodetypes="ccccc" /><path
       d="m 112.55747,122.42767 -13.083955,0.0279 -0.590145,0.6594 0.125057,39.07151 0.180351,0.48576 0.291455,0.33331 12.910327,4.73357 0.41651,-0.23565 0.27802,-0.26407 0.1664,-26.27901 -0.19431,-18.08882 z m -10.01696,3.7698 h 6.89105 l 0.4315,0.19637 0.31419,0.51056 0.0589,27.1911 -0.0982,0.70642 -0.35344,0.43202 -6.96908,0.0196 -0.54981,-0.216 -0.39274,-0.5891 -3e-5,-27.56372 z"
       style="fill:#444040;fill-opacity:1;stroke:#000000;stroke-width:0.465;stroke-dasharray:none;stroke-opacity:1"
       id="path10"
       sodipodi:nodetypes="cccccccccccccccccccccccc" /><path
       style="fill:#5a5858;fill-opacity:1;stroke:#000000;stroke-width:0.765;stroke-dasharray:none;stroke-opacity:1"
       d="m 102.10397,126.91155 0.44423,-0.58305 6.74677,0.0139 0.49976,0.31929 0.18047,0.48588 -0.0694,11.43897 -0.19435,0.20824 -0.3887,0.20823 -6.78843,-0.0972 -0.26376,-0.24988 z"
       id="path11" /><path
       style="fill:#2b2a2a;fill-opacity:1;stroke:#000000;stroke-width:0.665;stroke-dasharray:none;stroke-opacity:1"
       d="m 102.04844,139.47499 0.44423,-0.36788 7.24653,0.0902 0.22212,0.26377 v 2.87362 l -0.22212,0.19435 -7.32982,-0.0694 -0.29153,-0.33317 z"
       id="path12"
       sodipodi:nodetypes="ccccccccc" /><path
       style="fill:#5a5858;fill-opacity:1;stroke:#000000;stroke-width:0.465;stroke-dasharray:none;stroke-opacity:1"
       d="m 102.06471,143.04511 0.33892,-0.45167 7.18862,0.0751 0.41002,0.388 -0.0548,11.43898 -0.29153,0.48587 -6.8856,-0.0278 -0.6247,-0.58306 z"
       id="path13"
       sodipodi:nodetypes="ccccccccc" /><path
       style="fill:#444040;fill-opacity:1;stroke:#000000;stroke-width:0.465;stroke-dasharray:none;stroke-opacity:1"
       d="m 98.947646,72.640136 13.958684,-0.02945 0.0736,15.254428 -2.48926,-2.642803 -9.02027,0.04333 -2.516879,2.537351 z"
       id="path14"
       sodipodi:nodetypes="ccccccc" /><path
       style="fill:#2d2a2a;fill-opacity:1;stroke:#000000;stroke-width:0.465;stroke-dasharray:none;stroke-opacity:1"
       d="m 98.844575,118.53595 0.0098,4.43202 0.613516,-0.59879 h 13.193019 l 0.43191,0.39265 0.01,-4.25043 z"
       id="path15"
       sodipodi:nodetypes="ccccccc" /><path
       style="fill:#d40000;fill-opacity:0.368644;stroke:#000000;stroke-width:0.465;stroke-dasharray:none;stroke-opacity:1"
       d="m 98.841635,112.16166 0.01389,6.21925"
       id="path16" /><path
       style="fill:#444040;fill-opacity:1;stroke:#000000;stroke-width:0.465;stroke-dasharray:none;stroke-opacity:1"
       d="m 98.80693,112.21719 -0.04164,6.26089 14.42365,-0.0139 -0.0139,-6.38583 -2.96386,2.60986 -8.4057,0.0278 z"
       id="path17" /><path
       style="fill:#353333;fill-opacity:1;stroke:#000000;stroke-width:0.465;stroke-dasharray:none;stroke-opacity:1"
       d="m 98.98046,87.916305 2.55433,-2.450219 8.91935,-0.03471 2.49881,2.547393 0.0694,24.044071 -2.85281,2.45021 -8.25994,-0.007 -3.061032,-2.36693 z"
       id="path18" /><path
       style="fill:#444040;fill-opacity:1;stroke:#000000;stroke-width:0.465;stroke-dasharray:none;stroke-opacity:1"
       d="m 74.589918,78.452386 -0.268116,25.531434 -8.422751,2.68741 1.582578,-22.114433 1.05505,-3.442798 z"
       id="path19"
       sodipodi:nodetypes="cccccc" /><path
       style="fill:#d40000;fill-opacity:0.368644;stroke:#000000;stroke-width:0.465;stroke-dasharray:none;stroke-opacity:1"
       d="m 74.14511,104.40842 -0.124942,23.26665"
       id="path20" /><path
       style="fill:#444040;fill-opacity:1;stroke:#000000;stroke-width:0.465;stroke-dasharray:none;stroke-opacity:1"
       d="m 74.319419,104.38304 -0.299247,23.04215 -0.263763,0.6247 -0.485878,0.52753 -7.496416,3.19292 -0.01389,-22.51701 0.652465,-2.44328 z"
       id="path21"
       sodipodi:nodetypes="cccccccc" /><path
       style="fill:#444040;fill-opacity:1;stroke:#000000;stroke-width:0.465;stroke-dasharray:none;stroke-opacity:1"
       d="m 142.70261,203.36111 2.51269,-6.12207 1.45764,-6.35807 0.79129,-6.81619 0.1874,-7.5103 -0.38176,-11.6472 v -7.29513 l -0.1527,-7.84347 -0.43729,-9.66205 -0.59694,-7.37148 -1.27717,-15.18718 -0.73576,-7.46865 -1.29104,-10.550511 0.85375,10.127101 0.68717,8.12806 0.92317,10.84898 0.52753,6.33725 0.46506,5.35855 -0.007,13.15343 -0.57611,10.37004 -0.61776,11.41815 -0.52752,9.83558 z"
       id="path22"
       sodipodi:nodetypes="ccccccccccccccccccccccc" /><path
       style="fill:#444040;fill-opacity:1;stroke:#000000;stroke-width:0.465;stroke-dasharray:none;stroke-opacity:1"
       d="m 139.23552,79.493247 0.46853,0.534466 0.66981,2.207278 0.9197,6.521188 0.51018,3.796798 0.99258,7.0383 -1.44376,-7.919823 z"
       id="path23" /><path
       style="fill:#444040;fill-opacity:1;stroke:#000000;stroke-width:0.465;stroke-dasharray:none;stroke-opacity:1"
       d="m 69.577849,167.19784 5.636193,29.81908 6.219249,26.9871 -4.44232,-3.55385 -4.553379,-5.30303 -4.636672,-8.19052 -2.970802,-7.96842 -2.026809,-7.82959 -0.8607,-5.33078 -0.249881,-4.71997 3.442798,-6.91336 2.471042,-5.69172 z"
       id="path24" /><path
       style="fill:#d40000;fill-opacity:0.368644;stroke:#000000;stroke-width:0.465;stroke-dasharray:none;stroke-opacity:1"
       d="m 66.867613,150.4379 -0.176114,16.53625 z"
       id="path25"
       sodipodi:nodetypes="ccc" /><path
       style="fill:#000000;fill-opacity:1;stroke:#000000;stroke-width:0.465;stroke-dasharray:none;stroke-opacity:1"
       d="m 66.711131,166.99869 0.731311,1.50189 2.224074,-1.47899"
       id="path26"
       sodipodi:nodetypes="ccc" /><path
       style="fill:#444040;fill-opacity:1;stroke:#000000;stroke-width:0.465;stroke-dasharray:none;stroke-opacity:1"
       d="m 64.122122,175.31896 3.179037,-6.84395 -2.623747,-5.10866 -2.248925,7.8157 z"
       id="path27"
       sodipodi:nodetypes="ccccc" /><path
       style="fill:#444040;fill-opacity:1;stroke:#000000;stroke-width:0.465;stroke-dasharray:none;stroke-opacity:1"
       d="m 61.6372,180.78857 2.443277,-5.35855 -1.693635,-4.09526 -1.429872,2.60986 z"
       id="path28" /><path
       style="fill:#444040;fill-opacity:1;stroke:#000000;stroke-width:0.465;stroke-dasharray:none;stroke-opacity:1"
       d="m 66.593164,166.83691 -1.763046,-3.40116 -0.09718,-6.21924 0.291528,-3.92868 1.041168,-7.62136 0.37482,-2.31834 z"
       id="path29"
       sodipodi:nodetypes="ccccccc" /><path
       style="fill:#444040;fill-opacity:1;stroke:#000000;stroke-width:0.465;stroke-dasharray:none;stroke-opacity:1"
       d="m 61.526141,169.41901 -0.06941,1.81857 -0.513644,2.54045 1.415989,-2.62374 1.166111,-4.15079 z"
       id="path30"
       sodipodi:nodetypes="cccccc" /><path
       style="fill:#322f2f;fill-opacity:1;stroke:#000000;stroke-width:0.465;stroke-dasharray:none;stroke-opacity:1"
       d="m 61.512259,169.29407 2.082339,-2.52657 1.152226,-3.5261 -0.06941,-6.13595 0.277645,-3.90091 1.554811,-11.06416 -0.930111,-3.90091 -2.276689,14.96507 -0.6247,4.67832 -0.916231,7.07994 z"
       id="path31" /><path
       style="fill:#444040;fill-opacity:1;stroke:#000000;stroke-width:0.465;stroke-dasharray:none;stroke-opacity:1"
       d="m 66.787516,166.85079 h 2.901389 L 66.926337,150.4975 h -0.263763 z"
       id="path32" /><path
       style="fill:#d40000;fill-opacity:0.368644;stroke:#000000;stroke-width:0.465;stroke-dasharray:none;stroke-opacity:1"
       d="m 65.607524,138.22559 0.721876,2.94303 -0.416467,-8.21829 z"
       id="path33" /></g></svg>
