<?xml version="1.0" encoding="UTF-8" standalone="no"?>
<!-- Created with Inkscape (http://www.inkscape.org/) -->

<svg
   xmlns:dc="http://purl.org/dc/elements/1.1/"
   xmlns:cc="http://creativecommons.org/ns#"
   xmlns:rdf="http://www.w3.org/1999/02/22-rdf-syntax-ns#"
   xmlns:svg="http://www.w3.org/2000/svg"
   xmlns="http://www.w3.org/2000/svg"
   xmlns:sodipodi="http://sodipodi.sourceforge.net/DTD/sodipodi-0.dtd"
   xmlns:inkscape="http://www.inkscape.org/namespaces/inkscape"
   width="125.98492mm"
   height="203.06058mm"
   viewBox="0 0 446.40325 719.50598"
   id="svg2"
   version="1.1"
   inkscape:version="0.91 r13725"
   sodipodi:docname="katar.svg"
   inkscape:export-filename="/media/tatokis/Sailor Moon/html/katar2.png"
   inkscape:export-xdpi="136"
   inkscape:export-ydpi="136">
  <defs
     id="defs4">
    <marker
       inkscape:stockid="Arrow1Lstart"
       orient="auto"
       refY="0"
       refX="0"
       id="Arrow1Lstart"
       style="overflow:visible"
       inkscape:isstock="true">
      <path
         id="path4460"
         d="M 0,0 5,-5 -12.5,0 5,5 0,0 Z"
         style="fill:#1a1a1a;fill-opacity:1;fill-rule:evenodd;stroke:#1a1a1a;stroke-width:1pt;stroke-opacity:1"
         transform="matrix(0.8,0,0,0.8,10,0)"
         inkscape:connector-curvature="0" />
    </marker>
  </defs>
  <sodipodi:namedview
     id="base"
     pagecolor="#ffffff"
     bordercolor="#666666"
     borderopacity="1.0"
     inkscape:pageopacity="0.0"
     inkscape:pageshadow="2"
     inkscape:zoom="11.313708"
     inkscape:cx="227.61775"
     inkscape:cy="332.03014"
     inkscape:document-units="px"
     inkscape:current-layer="layer1"
     showgrid="false"
     showguides="true"
     inkscape:window-width="1920"
     inkscape:window-height="1056"
     inkscape:window-x="1680"
     inkscape:window-y="24"
     inkscape:window-maximized="1"
     fit-margin-top="5"
     fit-margin-left="5"
     fit-margin-bottom="5"
     fit-margin-right="5" />
  <metadata
     id="metadata7">
    <rdf:RDF>
      <cc:Work
         rdf:about="">
        <dc:format>image/svg+xml</dc:format>
        <dc:type
           rdf:resource="http://purl.org/dc/dcmitype/StillImage" />
        <dc:title />
      </cc:Work>
    </rdf:RDF>
  </metadata>
  <g
     inkscape:groupmode="layer"
     id="layer3"
     inkscape:label="fill"
     style="display:inline"
     transform="translate(-66.478846,-9.4131036)">
    <path
       style="display:inline;opacity:1;fill:#1a1a1a;fill-opacity:1;fill-rule:evenodd;stroke:#1a1a1a;stroke-width:2.13651109;stroke-linecap:round;stroke-linejoin:miter;stroke-miterlimit:4;stroke-dasharray:none;stroke-dashoffset:0;stroke-opacity:1"
       d="m 418.16252,494.93035 33.27355,17.10668 c -12.07726,42.36501 -28.77518,97.90938 -45.1734,138.83471 0,0 9.39391,-111.30642 11.89985,-155.94139 z m 3.72723,-5.11775 c -31.05467,-103.27932 20.31667,-283.58135 29.32437,-385.91015 25.77973,132.471 28.42303,270.04573 1.718,402.59942 -8.35332,-4.66109 -22.51783,-12.33673 -31.04237,-16.68927 z"
       id="path4736"
       inkscape:connector-curvature="0"
       sodipodi:nodetypes="cccccccc" />
    <path
       style="display:inline;opacity:1;fill:#1a1a1a;fill-opacity:1;fill-rule:evenodd;stroke:#1a1a1a;stroke-width:1.60238326;stroke-linecap:round;stroke-linejoin:miter;stroke-miterlimit:4;stroke-dasharray:none;stroke-dashoffset:0;stroke-opacity:1"
       d="m 151.73837,341.59987 c 12.50992,-14.98074 -20.97968,-242.085192 -21.2595,-241.993606 -0.0827,0.07677 -8.45948,43.877626 -9.40577,51.794916 -12.90309,107.95311 -8.91102,41.94786 -11.94805,168.32801 1.87999,1.39654 41.3885,22.6028 42.61332,21.87068 z"
       id="path4454-4"
       inkscape:connector-curvature="0"
       sodipodi:nodetypes="ccscc" />
    <path
       style="display:inline;opacity:1;fill:#1a1a1a;fill-opacity:1;fill-rule:evenodd;stroke:#1a1a1a;stroke-width:2.13651109;stroke-linecap:round;stroke-linejoin:miter;stroke-miterlimit:4;stroke-dasharray:none;stroke-dashoffset:0;stroke-opacity:1"
       d="m 150.98086,349.30737 -40.49542,-22.95451 c 0.52151,60.81526 11.30998,142.11277 24.09493,201.47883 18.7525,50.7565 22.03463,83.12428 46.13503,126.18048 0,0 -17.45888,-198.88711 -29.73454,-304.7048 z"
       id="path4736-9"
       inkscape:connector-curvature="0"
       sodipodi:nodetypes="ccccc" />
    <path
       style="opacity:1;fill:#1a1a1a;fill-opacity:1;fill-rule:evenodd;stroke:#1a1a1a;stroke-width:1.10000002;stroke-linecap:round;stroke-linejoin:miter;stroke-miterlimit:4.0999999;stroke-dasharray:none;stroke-dashoffset:0;stroke-opacity:1"
       d="m 289.78195,144.17381 c 0,-35.54497 0.001,-35.625 0.50367,-35.625 0.29962,0 0.70505,0.32917 1.00073,0.8125 0.27339,0.44687 3.81548,7.35472 7.87133,15.35077 l 7.37427,14.53827 0,5.00937 0,5.00938 -7.77507,15.26485 c -7.02171,13.78578 -7.8332,15.26486 -8.375,15.26486 l -0.59993,0 0,-35.625 z"
       id="path4787"
       inkscape:connector-curvature="0" />
    <path
       style="opacity:1;fill:#1a1a1a;fill-opacity:1;fill-rule:evenodd;stroke:#1a1a1a;stroke-width:2.79999995;stroke-linecap:round;stroke-linejoin:miter;stroke-miterlimit:4;stroke-dasharray:none;stroke-dashoffset:0;stroke-opacity:1"
       d="m 288.24777,179.23631 c -0.16597,-0.30938 -3.71368,-7.18929 -7.8838,-15.28871 l -7.58203,-14.72621 0,-4.93199 0,-4.932 7.85434,-15.3418 c 5.29672,-10.34604 7.99646,-15.37067 8.2908,-15.43048 0.41,-0.0833 0.42642,0.32481 0.27067,6.72812 -0.0912,3.74924 -0.1658,19.79227 -0.1658,35.65119 0,18.35525 -0.0877,28.83438 -0.24121,28.83438 -0.13266,0 -0.377,-0.25313 -0.54297,-0.5625 z"
       id="path4789"
       inkscape:connector-curvature="0" />
    <path
       style="opacity:1;fill:#1a1a1a;fill-opacity:1;fill-rule:evenodd;stroke:#1a1a1a;stroke-width:1.38999999;stroke-linecap:round;stroke-linejoin:miter;stroke-miterlimit:4;stroke-dasharray:none;stroke-dashoffset:0;stroke-opacity:1"
       d="m 303.41871,349.86075 -13.33376,-6.60005 -0.0129,-51.70718 -0.0129,-51.70718 13.37698,0 13.37698,0 0.23453,23.59969 c 0.31767,31.96435 0.29794,93.07982 -0.03,93.04384 -0.14584,-0.016 -6.26536,-2.9991 -13.59893,-6.62912 z"
       id="path4791"
       inkscape:connector-curvature="0" />
    <path
       style="opacity:1;fill:#1a1a1a;fill-opacity:1;fill-rule:evenodd;stroke:#1a1a1a;stroke-width:2.49099994;stroke-linecap:round;stroke-linejoin:miter;stroke-miterlimit:4;stroke-dasharray:none;stroke-dashoffset:0;stroke-opacity:1"
       d="M 428.19286,493.09378 C 414.68359,485.73499 392.01631,473.3858 377.82114,465.65111 324.27506,436.4748 299.88434,423.1865 295.08965,420.57819 l -4.94975,-2.69266 -0.0908,-25.2039 -0.0908,-25.20389 0.79786,0.24935 c 0.43882,0.13714 9.84422,4.77109 20.90089,10.29767 11.05666,5.52658 20.15146,9.99953 20.21066,9.93989 0.10908,-0.1099 -0.68025,-203.35534 -1.03125,-265.53865 l -0.19109,-33.852734 49.3836,0 49.3836,0 7.43826,4.662077 c 4.09104,2.564143 8.9564,5.642682 10.81192,6.841197 l 3.37367,2.17912 0.63306,3.50024 c 10.03599,55.48993 15.56832,102.90953 18.06261,154.82109 3.78595,78.79405 -1.15281,159.8357 -14.15564,232.28458 -0.6631,3.69463 -1.47897,8.26873 -1.81304,10.16466 -0.33407,1.89593 -0.69761,3.44714 -0.80787,3.44714 -0.11025,0 -11.25351,-6.0208 -24.76278,-13.37959 z"
       id="path4793"
       inkscape:connector-curvature="0" />
    <path
       style="opacity:1;fill:#1a1a1a;fill-opacity:1;fill-rule:evenodd;stroke:#1a1a1a;stroke-width:2.99099994;stroke-linecap:round;stroke-linejoin:miter;stroke-miterlimit:4.0999999;stroke-dasharray:none;stroke-dashoffset:0;stroke-opacity:1"
       d="m 290.07672,565.0139 0,-140.67847 3.25,1.66777 c 1.7875,0.91727 30.43205,16.49516 63.65456,34.61754 33.22251,18.12237 61.57251,33.46177 63,34.08756 1.42749,0.62578 2.92605,1.59694 3.33013,2.15814 0.40408,0.56119 0.74158,0.696 0.75,0.29957 0.008,-0.39644 2.15281,0.59058 4.76531,2.19337 2.6125,1.60278 8.6875,5.07116 13.5,7.7075 4.8125,2.63633 8.75,5.21091 8.75,5.72127 0,2.63344 -29.92296,101.13676 -32.6859,107.59864 -0.35275,0.825 -0.73648,1.8375 -0.85273,2.25 -0.11626,0.4125 -0.30205,0.8625 -0.41288,1 -0.11083,0.1375 -0.34538,0.99058 -0.52121,1.89573 -0.48772,2.51064 -6.50169,18.57831 -8.10138,21.64467 -0.77747,1.49028 -1.41635,3.09348 -1.41974,3.56267 -0.0101,1.39995 -8.69349,10.70049 -16.35073,17.51282 -24.73932,22.00958 -56.12458,34.89182 -89.68599,36.81206 l -10.96944,0.62763 0,-140.67847 z"
       id="path4795"
       inkscape:connector-curvature="0" />
    <path
       style="opacity:1;fill:#1a1a1a;fill-opacity:1;fill-rule:evenodd;stroke:#1a1a1a;stroke-width:2.11495638;stroke-linecap:round;stroke-linejoin:miter;stroke-miterlimit:4.0999999;stroke-dasharray:none;stroke-dashoffset:0;stroke-opacity:1"
       d="m 289.90529,179.72813 c -0.25005,-0.25004 -1.54648,-0.36056 -2.88096,-0.24559 -3.26826,0.28158 -9.74944,-1.67694 -12.02408,-3.63351 l -1.8481,-1.58966 -0.0432,-29.87616 c -0.0408,-28.22104 0.03,-29.95706 1.27853,-31.33665 2.2776,-2.51672 5.98069,-3.61759 13.42121,-3.98993 7.86879,-0.39377 13.42068,0.72656 16.80919,3.39196 l 1.8792,1.47818 0,30.30295 0,30.30295 -1.8792,1.47817 c -2.72537,2.14378 -13.55091,4.87896 -14.71259,3.71729 z"
       id="path4797"
       inkscape:connector-curvature="0" />
    <path
       style="opacity:1;fill:#1a1a1a;fill-opacity:1;fill-rule:evenodd;stroke:#1a1a1a;stroke-width:2.11495638;stroke-linecap:round;stroke-linejoin:miter;stroke-miterlimit:4.0999999;stroke-dasharray:none;stroke-dashoffset:0;stroke-opacity:1"
       d="m 289.15133,342.75276 -26.69328,-13.39842 0,-44.54588 0,-44.54588 27.22361,0 27.22361,0 0,55.77304 c 0,30.67518 0.19887,56.76742 0.44194,57.98276 0.3252,1.62598 0.1851,2.19955 -0.53033,2.17125 -0.53475,-0.0212 -12.98425,-6.06774 -27.66555,-13.43687 z"
       id="path4799"
       inkscape:connector-curvature="0" />
    <path
       style="opacity:1;fill:#1a1a1a;fill-opacity:1;fill-rule:evenodd;stroke:#1a1a1a;stroke-width:5.98199987;stroke-linecap:round;stroke-linejoin:miter;stroke-miterlimit:4.0999999;stroke-dasharray:none;stroke-dashoffset:0;stroke-opacity:1"
       d="m 250.26074,700.35275 c -26.99617,-6.63304 -62.95415,-28.40678 -68.61836,-41.55068 -1.27416,-2.95672 -12.24448,-35.50938 -24.37848,-72.33922 -26.19351,-79.5041 -33.65826,-112.79644 -43.49013,-193.96338 -0.70119,-5.78869 -2.21511,-26.46536 -3.29484,-45 -0.12816,-2.2 -0.0726,-7.83631 0.12355,-12.52514 l 0.35656,-8.52515 14.36065,7.23191 c 17.85682,8.99255 25.63036,14.65373 25.66998,18.6945 0.0235,2.39534 0.41297,2.52121 1.67005,0.53971 1.21878,-1.92111 39.31354,17.95925 148.46938,77.48111 80.75646,44.0359 147.65808,80.34982 148.67024,80.6976 2.02516,0.69585 -21.65174,80.70316 -34.89084,117.90066 -8.27706,23.2558 -8.51628,23.63902 -23.4791,37.61264 -17.53358,16.37444 -42.6421,29.61138 -65.86518,34.72346 -20.0681,4.41756 -55.20075,3.96126 -75.30348,-0.97802 z"
       id="path4801"
       inkscape:connector-curvature="0" />
    <path
       style="opacity:1;fill:#1a1a1a;fill-opacity:1;fill-rule:evenodd;stroke:#1a1a1a;stroke-width:5.98199987;stroke-linecap:round;stroke-linejoin:miter;stroke-miterlimit:4.0999999;stroke-dasharray:none;stroke-dashoffset:0;stroke-opacity:1"
       d="m 434.95904,496.38783 c -9.35,-5.12704 -73.7,-40.14202 -143,-77.81106 -69.3,-37.66906 -130.05,-70.81632 -135,-73.66058 -4.95,-2.84426 -9.20491,-5.03714 -9.45535,-4.8731 -0.25045,0.164 -8.80045,-4.42032 -19,-10.18748 l -18.54465,-10.48578 0.14108,-31.93518 c 0.22655,-51.28106 5.93334,-103.26749 19.05132,-173.54924 l 2.54104,-13.61406 25.21725,-15.665839 c 21.20705,-13.17456 87.40279,-48.10604 91.16176,-48.10604 0.63773,0 0.50951,69.696729 -0.28492,154.881609 l -1.44443,154.88161 40.77391,20.1184 c 22.42565,11.0651 41.77845,20.11838 43.00623,20.11838 1.63358,0 1.96918,-46.9539 1.25126,-175.05821 l -0.98108,-175.058203 4.99222,1.898041 c 21.59656,8.211 110.94098,58.339435 114.63664,64.319132 3.12166,5.05097 12.67988,72.66426 17.2324,121.89924 3.25612,35.21468 3.26372,141.42696 0.012,176 -2.83994,30.20022 -12.0242,97.0357 -14.01566,101.99424 -1.09232,2.71982 -3.91446,1.77776 -18.2916,-6.10588 l 5.8e-4,0 z"
       id="path4803"
       inkscape:connector-curvature="0" />
    <path
       style="display:inline;opacity:1;fill:#4d4d4d;fill-opacity:1;fill-rule:evenodd;stroke:#1a1a1a;stroke-width:0;stroke-linecap:round;stroke-linejoin:round;stroke-miterlimit:4;stroke-dasharray:none;stroke-dashoffset:0;stroke-opacity:1"
       d="m 307.87901,369.90295 -17.82204,-8.94554 0,-5.66405 c 0,-3.1152 0.10722,-5.66406 0.23873,-5.66406 0.13145,0 7.48399,3.62383 16.33924,8.05298 8.85527,4.42909 16.18172,7.97169 16.28104,7.8724 0.0994,-0.0994 0.0426,-29.64177 -0.12987,-65.64995 l -0.31022,-65.46943 -16.20959,0 -16.2096,0 0,-24.30452 0,-24.30451 1.06223,-0.21479 c 0.58421,-0.11818 2.44313,-0.32337 4.13093,-0.45599 6.54247,-0.5141 12.40292,-3.2807 15.44581,-7.29162 l 1.55004,-2.04314 0,-31.55775 0,-31.55775 -1.55004,-2.04316 c -3.24622,-4.27894 -9.10396,-6.88571 -16.50802,-7.34635 l -4.13095,-0.25702 0,-18.818795 0,-18.81878 17.40056,0 17.40052,0 0.30277,52.285815 c 0.1666,28.7572 0.40969,85.32149 0.54079,125.69847 0.13088,40.37689 0.36428,87.38098 0.51864,104.45357 0.15448,17.07254 0.10043,31.02946 -0.11905,31.01532 -0.21946,-0.0156 -8.41958,-4.05116 -18.22168,-8.97129 z"
       id="path4434"
       inkscape:connector-curvature="0" />
    <path
       style="display:inline;opacity:1;fill:#4d4d4d;fill-opacity:1;fill-rule:evenodd;stroke:#1a1a1a;stroke-width:0;stroke-linecap:round;stroke-linejoin:round;stroke-miterlimit:4;stroke-dasharray:none;stroke-dashoffset:0;stroke-opacity:1"
       d="m 270.2941,351.23837 -17.63833,-8.69648 0.29003,-19.47153 c 0.15976,-10.7093 0.50688,-68.75938 0.7724,-129.00019 0.26545,-60.24082 0.60666,-113.830827 0.75857,-119.088918 l 0.27603,-9.560162 16.9439,0 16.94394,0 0,18.814154 0,18.814136 -3.94551,0.27845 c -6.97768,0.49241 -13.3401,3.40549 -16.08323,7.36383 l -1.23766,1.78597 -0.003,31.46951 c -0.003,35.03828 -0.22224,32.69544 3.3599,35.93151 3.44378,3.11124 10.10734,5.42901 15.6667,5.44934 l 2.24255,0.009 0,24.54956 0,24.54958 -16.05167,0 -16.05163,0 0,49.2438 0,49.24384 16.26747,7.99911 c 11.11999,5.46797 16.19914,8.19804 16.05161,8.62786 -0.11876,0.34559 -0.21573,2.84204 -0.21573,5.54724 0,2.7052 -0.15914,4.90029 -0.35413,4.87809 -0.1949,-0.0218 -8.29133,-3.95384 -17.99246,-8.73691 z"
       id="path4436"
       inkscape:connector-curvature="0" />
    <rect
       style="opacity:1;fill:#4d4d4d;fill-opacity:1;fill-rule:evenodd;stroke:none;stroke-width:0;stroke-linecap:round;stroke-linejoin:miter;stroke-miterlimit:4;stroke-dasharray:none;stroke-dashoffset:0;stroke-opacity:1"
       id="rect5644"
       width="141.42136"
       height="54.047302"
       x="226.28499"
       y="181.58186"
       ry="0.66316688" />
    <rect
       style="display:inline;opacity:1;fill:#4d4d4d;fill-opacity:1;fill-rule:evenodd;stroke:none;stroke-width:0;stroke-linecap:round;stroke-linejoin:miter;stroke-miterlimit:4;stroke-dasharray:none;stroke-dashoffset:0;stroke-opacity:1"
       id="rect5644-6"
       width="62.921356"
       height="158.0473"
       x="321.26816"
       y="233.39543"
       ry="1.9392594" />
    <rect
       style="display:inline;opacity:1;fill:#4d4d4d;fill-opacity:1;fill-rule:evenodd;stroke:none;stroke-width:0;stroke-linecap:round;stroke-linejoin:miter;stroke-miterlimit:4;stroke-dasharray:none;stroke-dashoffset:0;stroke-opacity:1"
       id="rect5644-5"
       width="39.421356"
       height="141.0473"
       x="220.26817"
       y="223.39543"
       ry="1.7306674" />
    <rect
       style="display:inline;opacity:1;fill:#4d4d4d;fill-opacity:1;fill-rule:evenodd;stroke:none;stroke-width:0;stroke-linecap:round;stroke-linejoin:miter;stroke-miterlimit:4;stroke-dasharray:none;stroke-dashoffset:0;stroke-opacity:1"
       id="rect5644-3"
       width="141.42136"
       height="16.547302"
       x="254.26817"
       y="362.39545"
       ry="0.20303738" />
    <path
       style="display:inline;opacity:1;fill:#4d4d4d;fill-opacity:1;fill-rule:evenodd;stroke:none;stroke-width:0;stroke-linecap:round;stroke-linejoin:miter;stroke-miterlimit:4;stroke-dasharray:none;stroke-dashoffset:0;stroke-opacity:1"
       d="m 277.99378,359.67353 -23.22539,-13.35818 5.50029,-14.38538 39.84647,19.73313 c 0,0 23.07961,10.42702 22.89273,11.00401 -0.64376,1.98764 -1.89907,16.70804 -2.46575,16.6488 z"
       id="path5689"
       inkscape:connector-curvature="0"
       sodipodi:nodetypes="ccccscc" />
    <path
       style="display:inline;opacity:1;fill:#4d4d4d;fill-opacity:1;fill-rule:evenodd;stroke:none;stroke-width:0;stroke-linecap:round;stroke-linejoin:miter;stroke-miterlimit:4;stroke-dasharray:none;stroke-dashoffset:0;stroke-opacity:1"
       d="m 251.51447,235.80477 1.39351,-172.956054 33.07056,1.800164 0.64787,40.7564 -15.99916,5.37187 -0.90607,65.81692 19.89142,9.36879 20.14935,-9.9154 -0.31318,-64.82495 -21.59127,-6.18574 -0.5259,-40.680733 39.24079,-1.566531 0.11145,173.293364 z"
       id="path5689-6-2"
       inkscape:connector-curvature="0"
       sodipodi:nodetypes="cccccccccccccc"
       inkscape:transform-center-x="164.04877"
       inkscape:transform-center-y="-19.091883" />
    <rect
       style="opacity:1;fill:#4d4d4d;fill-opacity:1;fill-rule:evenodd;stroke:none;stroke-width:0;stroke-linecap:round;stroke-linejoin:miter;stroke-miterlimit:4;stroke-dasharray:none;stroke-dashoffset:0;stroke-opacity:1"
       id="rect5749"
       width="36.062447"
       height="43.663845"
       x="271.53983"
       y="63.354828" />
  </g>
  <g
     inkscape:groupmode="layer"
     id="layer2"
     inkscape:label="Layer 2"
     style="display:inline"
     transform="translate(-66.478846,-9.4131036)" />
  <g
     inkscape:label="Layer 1"
     inkscape:groupmode="layer"
     id="layer1"
     style="display:inline"
     transform="translate(-66.478846,-9.4131036)">
    <path
       id="path4142-3"
       style="display:inline;fill:#1a1a1a;fill-opacity:1;fill-rule:evenodd;stroke:#000000;stroke-width:5.34127712px;stroke-linecap:butt;stroke-linejoin:miter;stroke-opacity:1"
       d="m 289.62081,62.514897 38.0884,0.252868 0.0811,-31.420999 c 64.01364,30.358202 60.67,28.094301 126.02908,69.366864 l 20.41125,13.65476 c 14.04897,28.18004 20.79797,98.67599 17.39395,180.41598 -1.34538,221.8401 -43.6115,412.67353 -202.01529,413.7412 m 0.13088,-646.004243 -38.0884,0.252869 -0.0811,-31.420999 C 187.557,61.711398 190.90063,59.447498 125.54156,100.72006 l -20.41126,13.65477 c -14.048967,28.18002 -20.797968,98.67598 -17.39393,180.41598 1.345367,221.84013 43.61148,412.6735 202.01527,413.74116 m 119.30035,-54.87698 c 17.80598,-46.4649 32.28176,-95.5775 46.54798,-145.56268 27.74815,-145.01215 21.05202,-285.98239 -2.16525,-407.6894 M 128.97625,99.066983 C 97.597525,250.00127 99.493298,379.36269 134.28826,527.96482 l 45.32891,135.77591 M 107.88157,321.69835 454.05376,510.30496 M 289.72342,105.87154 c 11.35558,-0.0283 17.14539,3.40147 19.53709,7.85439 l 0.032,30.69577 m -19.67701,38.29569 c 11.43904,-0.10693 17.22888,-3.40149 19.62053,-7.85439 l 0.032,-30.69579 m -19.37799,38.55832 c -11.43904,-0.28411 -17.22886,-3.40149 -19.62055,-7.85441 l -0.23873,-30.72528 m 19.75681,-38.28521 c -11.52251,-0.007 -17.31237,3.42233 -19.70402,7.87525 l -0.032,30.69578 m -18.45809,-81.949905 -1.60232,281.859175 79.20767,39.40876 -1.33532,-322.269805 z m 7.73535,174.764505 0,93.80617 60.75704,30.0447 -0.33384,-123.85087 z"
       inkscape:connector-curvature="0" />
    <path
       style="opacity:1;fill:#4d4d4d;fill-opacity:1;fill-rule:evenodd;stroke:none;stroke-width:5;stroke-linecap:round;stroke-linejoin:round;stroke-miterlimit:4;stroke-dasharray:none;stroke-dashoffset:0;stroke-opacity:1"
       d="m 420.22093,632.78536 c -0.0156,-0.53252 3.17485,-10.51736 7.09198,-22.18901 7.38716,-22.01114 18.54032,-58.26168 26.7193,-86.84402 9.08643,-31.75354 17.59351,-93.18173 20.85657,-150.60207 4.52188,-79.57244 -0.14672,-162.83228 -13.7315,-244.87519 -1.83525,-11.08382 -3.15163,-20.33765 -2.92519,-20.56403 0.22661,-0.22636 3.42931,1.61896 7.11757,4.10079 6.21415,4.18146 6.87889,4.96253 9.06434,10.64979 13.91308,36.20638 17.89419,107.75305 12.81967,230.3881 -4.98567,120.48644 -25.06107,211.50688 -59.38823,269.26205 -5.25968,8.84922 -7.58034,12.09799 -7.62451,10.67359 z"
       id="path4444"
       inkscape:connector-curvature="0" />
    <path
       style="opacity:1;fill:#4d4d4d;fill-opacity:1;fill-rule:evenodd;stroke:none;stroke-width:5;stroke-linecap:round;stroke-linejoin:round;stroke-miterlimit:4;stroke-dasharray:none;stroke-dashoffset:0;stroke-opacity:1"
       d="M 167.15489,645.36266 C 137.88533,608.70795 115.55412,548.07895 103.40862,472.29267 94.932763,419.40438 91.508437,369.15664 90.120964,277.31263 88.999675,203.09059 93.906177,151.38578 104.84498,122.14912 c 1.89712,-5.07055 2.55666,-5.76775 10.52298,-11.1243 4.67446,-3.14308 8.65821,-5.55551 8.85279,-5.36093 0.19427,0.19459 -1.11676,8.1964 -2.91403,17.78184 -21.19553,113.04173 -22.840657,219.6999 -5.06027,328.07424 9.2741,56.52739 12.72264,69.92111 35.72141,138.73824 10.92287,32.68337 19.70671,59.57737 19.51972,59.76441 -0.18682,0.18681 -2.13678,-1.90993 -4.33269,-4.65996 z"
       id="path4446"
       inkscape:connector-curvature="0" />
    <path
       style="display:inline;opacity:1;fill:#4d4d4d;fill-opacity:1;fill-rule:evenodd;stroke:none;stroke-width:0;stroke-linecap:round;stroke-linejoin:miter;stroke-miterlimit:4;stroke-dasharray:none;stroke-dashoffset:0;stroke-opacity:1"
       d="m 291.01618,361.82247 -31.06914,-17.04568 15.25029,-1.76038 12.34647,4.98313 c 0,0 35.07961,17.67702 34.89273,18.25401 -0.64376,1.98764 0.10093,9.20804 -0.46575,9.1488 z"
       id="path5689-6"
       inkscape:connector-curvature="0"
       sodipodi:nodetypes="ccccscc" />
    <rect
       style="opacity:1;fill:#4d4d4d;fill-opacity:1;fill-rule:evenodd;stroke:none;stroke-width:0;stroke-linecap:round;stroke-linejoin:miter;stroke-miterlimit:4;stroke-dasharray:none;stroke-dashoffset:0;stroke-opacity:1"
       id="rect5746"
       width="6.1816478"
       height="37.982788"
       x="285.6875"
       y="65.209305"
       ry="0" />
    <rect
       style="opacity:1;fill:#4d4d4d;fill-opacity:1;fill-rule:evenodd;stroke:none;stroke-width:0;stroke-linecap:round;stroke-linejoin:miter;stroke-miterlimit:4;stroke-dasharray:none;stroke-dashoffset:0;stroke-opacity:1"
       id="rect5757"
       width="42.5"
       height="49.368717"
       x="268.97885"
       y="185.16908" />
    <path
       style="fill:#1a1a1a;fill-rule:evenodd;stroke:none;stroke-width:1px;stroke-linecap:butt;stroke-linejoin:miter;stroke-opacity:1;fill-opacity:1"
       d="m 288.46619,366.46056 3.84489,1.92245 0.28726,13.12567 -6.01041,-0.99437 z"
       id="path5761"
       inkscape:connector-curvature="0" />
  </g>
</svg>
