<?xml version="1.0" encoding="UTF-8" standalone="no"?>
<!-- Created with Inkscape (http://www.inkscape.org/) -->

<svg
   version="1.1"
   id="svg2"
   width="1184"
   height="1800"
   viewBox="0 0 1184 1800"
   sodipodi:docname="overlay_m55.svg"
   inkscape:version="1.1.1 (3bf5ae0d25, 2021-09-20)"
   inkscape:export-filename="/home/lofty/glaive.png"
   inkscape:export-xdpi="33.813332"
   inkscape:export-ydpi="33.813332"
   xmlns:inkscape="http://www.inkscape.org/namespaces/inkscape"
   xmlns:sodipodi="http://sodipodi.sourceforge.net/DTD/sodipodi-0.dtd"
   xmlns="http://www.w3.org/2000/svg"
   xmlns:svg="http://www.w3.org/2000/svg"
   xmlns:rdf="http://www.w3.org/1999/02/22-rdf-syntax-ns#"
   xmlns:cc="http://creativecommons.org/ns#"
   xmlns:dc="http://purl.org/dc/elements/1.1/">
  <metadata
     id="metadata8">
    <rdf:RDF>
      <cc:Work
         rdf:about="">
        <dc:format>image/svg+xml</dc:format>
        <dc:type
           rdf:resource="http://purl.org/dc/dcmitype/StillImage" />
      </cc:Work>
    </rdf:RDF>
  </metadata>
  <defs
     id="defs6" />
  <sodipodi:namedview
     pagecolor="#ffffff"
     bordercolor="#666666"
     borderopacity="1"
     objecttolerance="10"
     gridtolerance="10"
     guidetolerance="10"
     inkscape:pageopacity="0"
     inkscape:pageshadow="2"
     inkscape:window-width="2560"
     inkscape:window-height="1416"
     id="namedview4"
     showgrid="false"
     inkscape:zoom="0.45254834"
     inkscape:cx="367.9165"
     inkscape:cy="944.65047"
     inkscape:window-x="1920"
     inkscape:window-y="0"
     inkscape:window-maximized="1"
     inkscape:current-layer="layer2"
     inkscape:snap-global="true"
     inkscape:snap-bbox="false"
     inkscape:object-paths="true"
     inkscape:snap-midpoints="false"
     inkscape:measure-start="636.864,1069.7"
     inkscape:measure-end="0,0"
     inkscape:pagecheckerboard="0"
     showguides="true"
     inkscape:guide-bbox="true" />
  <g
     inkscape:groupmode="layer"
     id="layer1"
     inkscape:label="Glaive"
     style="display:inline" />
  <g
     inkscape:groupmode="layer"
     id="layer2"
     inkscape:label="Outline">
    <g
       id="layer1-3"
       inkscape:label="Glaive"
       style="display:inline"
       transform="translate(-1785.4148,-10.76997)" />
    <g
       id="layer3-6"
       inkscape:label="Middle"
       style="display:inline"
       transform="translate(-1785.4148,-10.76997)" />
    <path
       style="fill:#706e6e;fill-opacity:1;stroke:#000000;stroke-width:3.34325;stroke-linecap:butt;stroke-linejoin:miter;stroke-miterlimit:4;stroke-dasharray:none;stroke-opacity:1"
       d="m 253.63572,764.64068 -34.5613,8.19667 -6.64432,127.8384 37.40192,24.20061 z"
       id="path5643" />
    <path
       style="fill:#706e6e;fill-opacity:1;stroke:#000000;stroke-width:3.34325;stroke-linecap:butt;stroke-linejoin:miter;stroke-miterlimit:4;stroke-dasharray:none;stroke-opacity:1"
       d="m 236.10807,1084.5685 -33.45901,-11.9232 7.36111,-127.79915 39.82185,-19.96979 z"
       id="path5643-9" />
    <path
       style="fill:#706e6e;fill-opacity:1;stroke:#000000;stroke-width:3.34325;stroke-linecap:butt;stroke-linejoin:miter;stroke-miterlimit:4;stroke-dasharray:none;stroke-opacity:1"
       d="m 1014.6952,764.6407 34.5613,8.19667 6.6443,127.8384 -37.4019,24.20061 z"
       id="path5643-2" />
    <path
       style="fill:#706e6e;fill-opacity:1;stroke:#000000;stroke-width:3.34325;stroke-linecap:butt;stroke-linejoin:miter;stroke-miterlimit:4;stroke-dasharray:none;stroke-opacity:1"
       d="m 1032.2228,1084.5685 33.459,-11.9232 -7.3611,-127.79913 -39.8218,-19.96979 z"
       id="path5643-9-6" />
    <path
       id="path1610"
       style="fill:#444040;stroke:#000000;stroke-width:3;stroke-linecap:butt;stroke-linejoin:miter;stroke-opacity:1;fill-opacity:1;stroke-miterlimit:4;stroke-dasharray:none"
       d="M 515.85156 172.28125 L 307.17383 247.25781 L 244.08594 300.17578 C 244.08594 300.17578 246.02475 597.52499 246.98633 744.9707 C 246.91123 875.94783 243.90642 1064.9906 216.08008 1135.5898 C 213.2694 1139.7558 202.0332 1152.654 197.14648 1186.7441 C 220.84845 1303.0827 197.42662 1622.3625 632.29688 1624.4434 C 632.29687 1624.456 632.29688 1624.5265 632.29688 1624.5391 C 633.01291 1624.5391 633.66143 1624.4919 634.375 1624.4902 C 635.08857 1624.4919 635.73709 1624.5391 636.45312 1624.5391 C 636.45312 1624.5265 636.45313 1624.456 636.45312 1624.4434 C 1071.3234 1622.3625 1047.9015 1303.0827 1071.6035 1186.7441 C 1066.7168 1152.654 1055.4806 1139.7558 1052.6699 1135.5898 C 1024.8436 1064.9906 1021.8387 875.94787 1021.7637 744.9707 C 1022.7253 597.52499 1024.6641 300.17578 1024.6641 300.17578 L 961.57617 247.25781 L 752.89844 172.28125 L 724.79102 231.46875 L 634.375 172.28125 L 543.95898 231.46875 L 515.85156 172.28125 z " />
    <path
       id="path6741"
       style="fill:#000005;stroke:#000000;stroke-width:1px;stroke-linecap:butt;stroke-linejoin:miter;stroke-opacity:1;fill-opacity:1"
       d="M 634.375 172.28125 L 543.95898 231.46875 L 543.95898 792.95117 L 634.375 817.17773 L 724.79102 792.95117 L 724.79102 231.46875 L 634.375 172.28125 z " />
    <path
       style="fill:#706e6e;fill-opacity:1;stroke:#000000;stroke-width:3.10677;stroke-linecap:butt;stroke-linejoin:miter;stroke-miterlimit:4;stroke-dasharray:none;stroke-opacity:1"
       d="m 634.375,273.76134 c -28.8203,0.23087 -39.2825,8.59118 -58.4753,27.63487 l 1.4462,223.10106 c 15.6644,25.078 31.7846,25.98644 59.1985,31.67901 33.2653,-4.85486 32.9385,-7.6393 57.2249,-28.98293 V 293.98197 C 670.7526,275.07963 663.5136,277.47929 634.375,273.76134 Z"
       id="path4544"
       inkscape:connector-curvature="0"
       sodipodi:nodetypes="ccccccc" />
    <path
       id="path7353"
       style="fill:#706e6e;stroke:#000000;stroke-width:1px;stroke-linecap:butt;stroke-linejoin:miter;stroke-opacity:1;fill-opacity:1"
       d="M 634.375 612.53906 L 583.875 626.07227 L 583.875 766.61328 L 634.375 780.14453 L 684.875 766.61328 L 684.875 626.07227 L 634.375 612.53906 z " />
  </g>
  <g
     inkscape:groupmode="layer"
     id="layer3"
     inkscape:label="Middle"
     style="display:inline" />
  <g
     inkscape:groupmode="layer"
     id="layer6"
     inkscape:label="Upper middle"
     style="display:inline" />
  <g
     inkscape:groupmode="layer"
     id="layer4"
     inkscape:label="Upper"
     style="display:inline" />
  <g
     inkscape:groupmode="layer"
     id="layer5"
     inkscape:label="Button" />
</svg>
